<?xml version="1.0" encoding="UTF-8" standalone="no"?>
<svg
   xmlns:dc="http://purl.org/dc/elements/1.1/"
   xmlns:cc="http://creativecommons.org/ns#"
   xmlns:rdf="http://www.w3.org/1999/02/22-rdf-syntax-ns#"
   xmlns:svg="http://www.w3.org/2000/svg"
   xmlns="http://www.w3.org/2000/svg"
   xmlns:sodipodi="http://sodipodi.sourceforge.net/DTD/sodipodi-0.dtd"
   xmlns:inkscape="http://www.inkscape.org/namespaces/inkscape"
   version="1.1"
   id="Layer_1"
   x="0px"
   y="0px"
   viewBox="0 0 1680 1693.9089"
   enable-background="new 0 0 1535.5566 1693.9089"
   xml:space="preserve"
   inkscape:version="0.91 r13725"
   sodipodi:docname="growing-mentalhealth.svg"
   width="1680"
   height="1693.9089"><metadata
     id="metadata4739"><rdf:RDF><cc:Work
         rdf:about=""><dc:format>image/svg+xml</dc:format><dc:type
           rdf:resource="http://purl.org/dc/dcmitype/StillImage" /><dc:title></dc:title><dc:creator><cc:Agent><dc:title>j4p4n</dc:title></cc:Agent></dc:creator><cc:license
           rdf:resource="http://creativecommons.org/publicdomain/zero/1.0/" /></cc:Work><cc:License
         rdf:about="http://creativecommons.org/publicdomain/zero/1.0/"><cc:permits
           rdf:resource="http://creativecommons.org/ns#Reproduction" /><cc:permits
           rdf:resource="http://creativecommons.org/ns#Distribution" /><cc:permits
           rdf:resource="http://creativecommons.org/ns#DerivativeWorks" /></cc:License></rdf:RDF></metadata><defs
     id="defs4737"><linearGradient
       id="linearGradient4087"><stop
         id="stop4089"
         style="stop-color:#0088aa"
         offset="0" /><stop
         id="stop4091"
         style="stop-color:#80e4ff"
         offset=".29132" /><stop
         id="stop4093"
         style="stop-color:#00a4cd"
         offset="1" /></linearGradient></defs><sodipodi:namedview
     pagecolor="#ffffff"
     bordercolor="#666666"
     borderopacity="1"
     objecttolerance="10"
     gridtolerance="10"
     guidetolerance="10"
     inkscape:pageopacity="0"
     inkscape:pageshadow="2"
     inkscape:window-width="1916"
     inkscape:window-height="1035"
     id="namedview4735"
     showgrid="false"
     inkscape:zoom="0.3584356"
     inkscape:cx="904.37511"
     inkscape:cy="680.31339"
     inkscape:window-x="4"
     inkscape:window-y="1"
     inkscape:window-maximized="1"
     inkscape:current-layer="g5878" /><g
     id="layer1_1_"
     transform="translate(-1077.7318,-229.81869)"><g
       id="g5878"><g
         transform="matrix(-0.46291992,-0.10276173,-0.08447862,0.31643301,1989.151,1023.506)"
         id="g5405" /><g
         id="g5967"><path
           inkscape:connector-curvature="0"
           id="path5778"
           d="m 1844.9547,322.32422 -309.6791,122.75566 -106.0162,273.41035 44.6384,555.19037 449.1741,276.2003 549.6106,-546.8207 -27.899,-435.22466 -348.7377,-203.6628 z"
           style="fill:#e2e3db;fill-opacity:1;fill-rule:evenodd;stroke:none;stroke-width:1px;stroke-linecap:butt;stroke-linejoin:miter;stroke-opacity:1" /><path
           d="M 824.44727,46.960938 C 464.09059,45.646232 263.13066,266.13321 232.85352,493.33594 c -3.4811,26.3881 0.001,52.77701 12.44336,80.16211 -57.71531,90.1186 -190.569771,223.05445 -202.009771,286.78515 -6.9684,38.3367 38.309578,51.78081 60.205081,65.22461 20.8989,6.9713 43.78434,1.99042 57.71484,18.91992 9.9514,12.4475 -3.47965,33.35777 -6.46875,48.79297 -0.4982,25.3925 -30.34618,37.8406 -27.36328,61.2402 2.9891,19.9164 19.90293,27.8827 35.32812,40.3301 16.4214,12.9442 -41.79907,37.8383 -22.89257,60.7422 19.4044,22.4041 47.7699,48.2952 37.8125,80.1602 -14.4288,49.2911 -42.2962,100.5741 -19.4043,138.9121 22.8917,37.8401 54.73153,60.2433 103.99023,70.1992 77.1198,0 154.74549,1.5039 232.36329,1.5039 26.865,23.4005 45.76992,99.0797 60.70312,200.6465 l 781.66601,0 c -32.8428,-154.3505 -72.1504,-408.2737 -55.2305,-470.5098 27.8672,-105.5531 117.9222,-185.21561 151.7618,-269.85741 172.1553,-430.1788 -38.2014,-804.68691 -513.98247,-854.382812 -32.82137,-3.428226 -64.50426,-5.132725 -95.04296,-5.24414 z m 30.60604,178.914922 c 30.412,0.0576 59.75728,0.64649 86.53906,0.64649 122.43093,-10e-6 239.84613,46.28381 326.41793,128.66992 86.5718,82.3861 107.3081,152.2786 107.3081,268.79015 0,116.51155 -59.7935,178.03186 -146.3653,260.41797 -86.5718,82.38612 -192.8288,178.88871 -315.25974,178.88871 -122.43098,0 -195.20948,-82.55338 -281.78125,-164.93949 -86.57177,-82.38612 -179.84571,-157.85564 -179.8457,-274.36719 0,-116.51154 17.94638,-244.99194 104.51815,-327.37804 67.63419,-64.36414 189.85445,-70.93409 298.46875,-70.72852 z"
           transform="translate(1077.7318,229.8187)"
           id="path19449_1_"
           style="fill:#000080"
           inkscape:connector-curvature="0"
           sodipodi:nodetypes="scccccccccccccccccssssssssssss" /><g
           id="g5355"
           transform="matrix(-0.9804006,0,0,0.55539902,2173.1306,851.2215)"><g
             label="square"
             transform="matrix(1.1313,-0.03922,0.040744,1.089,-85.387552,-335.22893)"
             id="imagebot_4"><g
               transform="matrix(2.7323,-1.2672,0.82272,3.5256,-909.03,417.33)"
               id="imagebot_5"><path
                 style="fill:#44aa00"
                 inkscape:connector-curvature="0"
                 d="m 410.34,221.66 c 0.032,4.078 -1.213,37.755 -48.75,70.875 -23.327,20.628 -97.088,83.85 -63.362,124.95 -4.036,6.718 -8.643,13.551 -12.696,39.741 -3.427,-21.223 -11.148,-27.722 -13.755,-32.035 21.68,-42.281 -3.996,-63.154 -25.75,-90.438 -27.017,-24.669 -20.5,-53.031 -20.5,-53.031 0,0 -32.741,126.93 17.531,150.03 0,0 17.694,3.366 26.844,-3.375 14.218,23.567 13.502,45.271 13.502,45.271 l 5.124,-0.092 c -2.056,-14.689 12.562,-51.179 12.562,-51.179 12.674,7.595 36.344,-4.531 36.344,-4.531 86.33,-35.683 73.289,-191.81 72.906,-196.19 l 0,0.004 z"
                 transform="matrix(0.33901,0.064567,-0.008778,0.27464,274.2,112.44)"
                 id="imagebot_6" /></g></g><path
             inkscape:connector-curvature="0"
             id="path5353"
             d="m 252.72122,300.57499 41.24475,296.47822 8.6831,2.353 -36.90319,-303.53722 z"
             style="fill:#44aa00;fill-opacity:1;fill-rule:evenodd;stroke:none;stroke-width:0.81008351px;stroke-linecap:butt;stroke-linejoin:miter;stroke-opacity:1" /></g><path
           style="fill:#aa0000"
           inkscape:connector-curvature="0"
           d="M 150.69149,51.715117 410.8284,-182.26828 A 183.94458,165.45125 0 1 0 150.69149,-416.25169 183.94458,165.45125 0 0 0 -109.44543,-182.26828 L 150.69149,51.715117"
           id="path5392"
           transform="matrix(-0.46291992,-0.10276173,-0.08447862,0.31643301,1989.151,1023.506)" /><g
           id="text5401"
           style="font-style:normal;font-weight:normal;font-size:389.55587769px;line-height:125%;font-family:sans-serif;letter-spacing:0px;word-spacing:0px;fill:#000000;fill-opacity:1;stroke:#ffffff;stroke-width:16.20166969;stroke-linecap:round;stroke-linejoin:round;stroke-miterlimit:4;stroke-dasharray:none;stroke-opacity:1"
           transform="matrix(-0.47066429,-0.10448087,-0.0830886,0.31122637,1989.151,1023.506)"><path
             id="path5962"
             style="font-style:normal;font-variant:normal;font-weight:bold;font-stretch:normal;font-family:sans-serif;-inkscape-font-specification:'sans-serif Bold';fill:#ffffff;stroke:#ffffff;stroke-width:16.20166969;stroke-linecap:round;stroke-linejoin:round;stroke-miterlimit:4;stroke-dasharray:none;stroke-opacity:1"
             d="m 273.98523,-215.88538 -101.38344,0 0,100.43238 -52.11831,0 0,-100.43238 -101.383443,0 0,-50.97704 101.383443,0 0,-100.43237 52.11831,0 0,100.43237 101.38344,0 0,50.97704 z" /></g><path
           style="fill:#808080"
           inkscape:connector-curvature="0"
           d="m 2667.4026,1709.8003 -135.0726,81.2865 -40.0688,-86.2747 135.0727,-81.2863 z m -45.3061,-97.5517 -135.0726,81.2867 -40.0695,-86.2766 135.0725,-81.2863 z m -45.3059,-97.5512 -135.0726,81.2864 -40.0687,-86.2748 135.0725,-81.2864 z m -45.3061,-97.5517 -135.0725,81.2866 -40.0706,-86.2786 135.0726,-81.2865 z m -45.306,-97.5515 -135.0725,81.2865 -40.0706,-86.2786 135.0727,-81.2864 z m -45.3068,-97.5534 -135.0727,81.2864 -40.0695,-86.2764 135.0725,-81.2866 z m -45.3061,-97.5516 -135.0726,81.2867 -40.0696,-86.2767 135.0727,-81.2865 z m -55.8843,-174.90795 -19.8114,11.92245 30.3898,65.4341 -135.0728,81.2864 -30.3895,-65.4341 -19.8132,11.9235 380.8582,820.0521 19.8129,-11.9238 -28.089,-60.4802 135.0726,-81.2863 32.0891,86.4803 19.8113,-11.9226 -384.858,-846.05185"
           id="path46169"
           sodipodi:nodetypes="cccccccccccccccccccccccccccccccccccccccccccccccc" /><path
           id="path5865"
           style="fill:#5b5555;fill-opacity:1"
           d="m 2158.32,709.3326 0,-7.10546 c 0,-19.61108 -18.3225,-35.52732 -40.8984,-35.52732 -22.576,0 -40.8985,15.91624 -40.8985,35.52732 l 0,82.32389 -38.69,-33.60884 5.6768,-18.40315 c 0,-0.0285 0,-0.0568 0,-0.0853 l 0,0 0,0 c 0.7035,-2.35901 0,-4.98803 -2.143,-6.83546 -3.1902,-2.77113 -8.3761,-2.77113 -11.5662,0 l -32.7187,28.42185 c -3.19,2.77114 -3.19,7.276 0,10.04713 2.1267,1.84742 5.1205,2.4727 7.8362,1.86163 0,0 0,0 0,0 0,-0.0142 0.1635,-0.0284 0.1635,-0.0426 l 21.1527,-4.91697 50.2559,43.65596 0,4.16379 c 0,7.84444 7.3291,14.21093 16.3595,14.21093 l 49.0781,0 c 9.0304,0 16.3593,-6.36649 16.3593,-14.21093 l 0,-6.59386 37.1031,-32.23038 c 15.9503,-13.86986 15.9503,-36.37997 0,-50.24984 -7.9834,-6.93493 -18.4533,-10.40239 -28.9234,-10.40239 l 0,0 -8.1797,0 z m 0,14.21092 8.1796,0 0,0 c 6.282,0 12.5641,2.08901 17.3573,6.2386 9.5702,8.3276 9.5702,21.82798 0,30.15558 l -25.5369,22.16905 0,-58.56323 z m -65.4376,-14.21092 0,-7.10546 c 0,-11.76665 10.9936,-21.31639 24.5392,-21.31639 13.5454,0 24.539,9.54974 24.539,21.31639 l 0,7.10546 -49.0782,0 z"
           inkscape:connector-curvature="0" /><path
           style="fill:#d4aa00"
           d="m 2282.4386,656.51311 c 4.9733,-3.25745 12.3056,-5.90531 19.1083,-5.33173 1.0208,-0.19892 6.0561,3.98616 7.0737,3.88172 13.6141,-1.69097 25.4983,3.34691 32.1367,18.91318 3.3088,14.32478 15.6223,19.82816 26.2887,25.40383 6.5964,2.334 10.0693,9.24987 1.0523,5.5712 -5.4709,-4.22023 -26.1346,-4.90377 -11.3296,2.07815 9.7528,5.87405 4.2055,14.75737 -4.5724,7.90177 -2.5635,3.19681 2.5484,10.88028 -5.6368,4.87113 0.5622,3.64114 3.8944,16.77235 -2.6336,7.15483 -4.2088,-6.95241 -12.4962,-10.11431 -12.6657,-1.1404 10.3347,35.76207 49.3729,-47.70396 63.9273,142.96489 2.9403,8.72769 12.7874,50.74549 11.7679,60.01911 -7.328,66.66083 -2.8646,134.63321 2.5717,201.52781 3.3621,41.3725 19.4789,80.4291 23.6875,121.7044 0.4705,4.6156 -11.2529,-8.7189 -11.7036,-4.1011 -0.7901,8.0659 17.0747,20.5348 9.9972,21.5253 -26.0899,3.6514 -56.4018,4.8145 -78.1565,-11.9881 -13.4307,-10.3676 32.1616,-5.9454 47.6167,-11.5996 2.8583,-1.0454 -8.0555,0.7054 -8.7133,-2.63 -7.0187,-35.7955 -8.9559,-72.6471 -13.1849,-109.0165 -6.2224,-53.5253 5.659,-113.9692 -18.1585,-160.66698 -9.9749,-19.55792 -67.3731,-18.85083 -79.8915,-7.6632 14.5036,23.56562 32.1924,62.48878 32.5788,84.14558 -5.3778,-0.4979 -7.4067,3.2308 -7.6167,4.3387 -2.1457,3.4783 3.4109,19.6749 -0.2992,19.1985 -19.4903,-2.5096 -40.897,1.0431 -54.0019,-25.1036 -8.9831,-8.2604 34.5853,10.6997 34.5778,-2.4446 -0.019,-33.349 -43.6106,-72.92832 -34.6335,-91.94948 18.5227,-30.79439 58.6157,-28.06772 88.6002,-23.81571 -8.1745,-14.82917 -15.794,-40.70263 -24.925,-63.61211 -3.3434,-2.61895 -6.8666,-4.89089 -10.8522,-6.2292 -7.8087,-2.02724 -15.0685,-7.77431 -16.5049,-17.31115 -1.4224,-6.1873 -0.3172,-12.50082 1.0958,-18.71138 -3.6614,-2.49661 -7.5714,-3.88759 -11.794,-3.77863 8.4328,37.9089 7.6291,91.53719 -14.8017,99.76249 -32.8935,5.23153 -45.3857,-16.26207 -75.5721,-44.94589 -15.6209,17.02592 -8.3473,-45.23335 14.8576,-8.94136 19.6395,21.76457 33.8155,42.54584 52.8119,24.4432 19.3515,-18.43892 1.8005,-43.38614 2.2486,-72.11062 l 11.2235,-25.44537 c -18.9592,-11.33677 -42.5146,-16.27986 -64.7274,-52.63891 -26.7756,32.78133 -43.459,-37.1817 12.4294,-16.6625 24.8307,26.49857 44.3914,37.16643 63.6832,40.48281 9.3622,2.62361 18.0742,-16.27005 7.2258,-16.86978 -17.8004,-0.98941 -20.6142,-59.7792 -11.0258,-76.91657 1.51,-2.6994 4.3938,-12.66236 6.84,-14.26474 z"
           id="path46171"
           inkscape:connector-curvature="0"
           sodipodi:nodetypes="sccccccccccccsccccccccccccccccccccccccccccccccs" /><path
           style="fill:none;fill-rule:evenodd;stroke:#84b6e0;stroke-width:24.06860352;stroke-linecap:round;stroke-linejoin:round;stroke-miterlimit:4;stroke-dasharray:none;stroke-opacity:1"
           d="m 1977.8261,752.99383 c -80.0402,28.44682 -53.0152,71.54033 -70.5034,115.09638"
           id="path5874"
           inkscape:connector-curvature="0"
           sodipodi:nodetypes="cc" /><path
           sodipodi:nodetypes="cc"
           inkscape:connector-curvature="0"
           id="path5876"
           d="M 1991.7756,719.51502 C 1892.0137,697.58969 1863.1214,784.11026 1868.2641,845.771"
           style="fill:none;fill-rule:evenodd;stroke:#84b6e0;stroke-width:24.06860352;stroke-linecap:round;stroke-linejoin:round;stroke-miterlimit:4;stroke-dasharray:none;stroke-opacity:1" /></g></g><g
       transform="scale(0.67178409,1.4885735)"
       style="font-style:normal;font-weight:normal;font-size:86.99765778px;line-height:125%;font-family:sans-serif;letter-spacing:0px;word-spacing:0px;opacity:0.61499999;fill:#000080;fill-opacity:1;stroke:none;stroke-width:1px;stroke-linecap:butt;stroke-linejoin:miter;stroke-opacity:1"
       id="text5896"><path
         d="m 2276.931,1414.8541 -7.9861,0 0,-27.0168 q 0,-3.0585 -0.2973,-5.9047 -0.2549,-2.8461 -1.147,-4.5452 -0.977,-1.8266 -2.8036,-2.7612 -1.8266,-0.9345 -5.2675,-0.9345 -3.3558,0 -6.7117,1.6991 -3.3559,1.6567 -6.7117,4.248 0.1274,0.977 0.2124,2.2938 0.085,1.2744 0.085,2.5488 l 0,30.3727 -7.9861,0 0,-27.0168 q 0,-3.1435 -0.2973,-5.9471 -0.2549,-2.8461 -1.147,-4.5453 -0.977,-1.8266 -2.8036,-2.7187 -1.8266,-0.9345 -5.2674,-0.9345 -3.271,0 -6.5843,1.6142 -3.2709,1.6142 -6.5419,4.1205 l 0,35.4277 -7.9861,0 0,-47.4494 7.9861,0 0,5.2675 q 3.7382,-3.101 7.4339,-4.8427 3.7382,-1.7416 7.9437,-1.7416 4.8426,0 8.1985,2.039 3.3983,2.039 5.055,5.6497 4.8427,-4.078 8.8357,-5.8621 3.9931,-1.8266 8.5384,-1.8266 7.8161,0 11.5118,4.7576 3.7382,4.7153 3.7382,13.2111 l 0,30.7975 z"
         style=""
         id="path5905" /><path
         d="m 2329.0107,1414.8541 -7.9437,0 0,-5.055 q -1.0619,0.7221 -2.8885,2.039 -1.7842,1.2744 -3.4834,2.039 -1.9965,0.977 -4.5877,1.6142 -2.5913,0.6797 -6.0746,0.6797 -6.4143,0 -10.8747,-4.2479 -4.4603,-4.248 -4.4603,-10.8323 0,-5.3948 2.2939,-8.7082 2.3363,-3.3559 6.6268,-5.2675 4.3329,-1.9115 10.4074,-2.5912 6.0745,-0.6797 13.0411,-1.0195 l 0,-1.2319 q 0,-2.7187 -0.977,-4.5028 -0.9345,-1.7842 -2.7187,-2.8037 -1.6991,-0.977 -4.078,-1.3168 -2.3788,-0.3399 -4.97,-0.3399 -3.1435,0 -7.0091,0.8496 -3.8657,0.8071 -7.9862,2.3789 l -0.4247,0 0,-8.1136 q 2.3363,-0.6372 6.7542,-1.4018 4.4178,-0.7646 8.7082,-0.7646 5.0126,0 8.7083,0.8496 3.7382,0.8071 6.4568,2.8036 2.6762,1.954 4.0781,5.055 1.4018,3.101 1.4018,7.6888 l 0,32.1993 z m -7.9437,-11.6818 0,-13.2111 q -3.6532,0.2124 -8.6233,0.6372 -4.9276,0.4248 -7.8162,1.2319 -3.4408,0.9771 -5.5647,3.0585 -2.124,2.0391 -2.124,5.6498 0,4.078 2.4638,6.1595 2.4638,2.039 7.5188,2.039 4.2055,0 7.6888,-1.6142 3.4833,-1.6567 6.4568,-3.9506 z"
         style=""
         id="path5907" /><path
         d="m 2382.7895,1414.8541 -7.9861,0 0,-4.9701 q -3.4408,2.9736 -7.179,4.6303 -3.7382,1.6567 -8.1136,1.6567 -8.4958,0 -13.5084,-6.5418 -4.9701,-6.5418 -4.9701,-18.1387 0,-6.0321 1.6992,-10.7473 1.7417,-4.7152 4.6727,-8.0286 2.8886,-3.2284 6.7118,-4.9276 3.8656,-1.6991 7.9861,-1.6991 3.7382,0 6.6268,0.8071 2.8885,0.7646 6.0745,2.4213 l 0,-20.56 7.9861,0 0,66.0978 z m -7.9861,-11.6818 0,-27.2292 q -3.2284,-1.4443 -5.7772,-1.9966 -2.5488,-0.5522 -5.5648,-0.5522 -6.7117,0 -10.4499,4.6727 -3.7382,4.6728 -3.7382,13.2536 0,8.4534 2.8886,12.8712 2.8886,4.3754 9.2605,4.3754 3.3984,0 6.8817,-1.4868 3.4833,-1.5292 6.4993,-3.9081 z"
         style=""
         id="path5909" /><path
         d="m 2438.225,1391.9578 -34.9605,0 q 0,4.3753 1.3169,7.6462 1.3169,3.2285 3.6107,5.31 2.209,2.039 5.225,3.0585 3.0585,1.0195 6.7117,1.0195 4.8427,0 9.7278,-1.9116 4.9276,-1.954 7.0091,-3.8231 l 0.4248,0 0,8.7082 q -4.0356,1.6992 -8.241,2.8461 -4.2055,1.147 -8.8357,1.147 -11.8093,0 -18.436,-6.3719 -6.6268,-6.4144 -6.6268,-18.1812 0,-11.6393 6.3294,-18.4785 6.3719,-6.8391 16.7369,-6.8391 9.6003,0 14.7828,5.6072 5.2249,5.6073 5.2249,15.9298 l 0,4.3329 z m -7.7737,-6.1171 q -0.043,-6.2869 -3.1859,-9.7277 -3.101,-3.4408 -9.4729,-3.4408 -6.4144,0 -10.2376,3.7806 -3.7806,3.7807 -4.2904,9.3879 l 27.1868,0 z"
         style=""
         id="path5911" /><path
         d="m 2522.6739,1390.7683 q 0,5.9472 -1.6991,10.7048 -1.6567,4.7577 -4.5029,7.9862 -3.016,3.3558 -6.6267,5.055 -3.6108,1.6567 -7.9437,1.6567 -4.0355,0 -7.0515,-0.977 -3.0161,-0.9346 -5.9471,-2.5488 l -0.5098,2.2089 -7.4763,0 0,-66.0978 7.9861,0 0,23.6185 q 3.3558,-2.7612 7.1365,-4.5028 3.7806,-1.7841 8.4959,-1.7841 8.4109,0 13.2535,6.4568 4.8851,6.4569 4.8851,18.2236 z m -8.241,0.2124 q 0,-8.4958 -2.8036,-12.8712 -2.8036,-4.4178 -9.0481,-4.4178 -3.4833,0 -7.0516,1.5292 -3.5682,1.4868 -6.6267,3.8656 l 0,27.1868 q 3.3983,1.5293 5.8196,2.124 2.4638,0.5947 5.5648,0.5947 6.6268,0 10.365,-4.3329 3.7806,-4.3754 3.7806,-13.6784 z"
         style=""
         id="path5913" /><path
         d="m 2576.1554,1367.4047 -27.6965,64.9509 -8.5384,0 8.8357,-19.7954 -18.9033,-45.1555 8.6658,0 14.5704,35.1729 14.6979,-35.1729 8.3684,0 z"
         style=""
         id="path5915" /><path
         d="m 2637.1982,1415.7037 q 0,8.0711 -4.9701,12.5739 -4.9701,4.5453 -12.7863,4.5453 -4.1629,0 -7.6038,-0.3823 -3.3983,-0.3399 -4.97,-0.7222 l 0,-10.9596 1.1894,0 q 1.2744,0.4247 3.1859,0.7221 1.9116,0.2974 3.0161,0.2974 4.4178,0 6.032,-2.6338 1.6142,-2.6337 1.6142,-8.6657 l 0,-32.964 -9.0481,0 0,-10.365 24.3407,0 0,48.5539 z m 0,-55.3505 -16.2696,0 0,-11.5969 16.2696,0 0,11.5969 z"
         style="font-weight:bold;fill:#000080;fill-opacity:1"
         id="path5917" /><path
         d="m 2702.7438,1400.2837 -8.6233,0 0,14.7403 -15.5899,0 0,-14.7403 -30.6276,0 0,-11.9792 29.6081,-36.7021 16.6094,0 0,37.1269 8.6233,0 0,11.5544 z m -24.2132,-11.5544 0,-22.8538 -18.3936,22.8538 18.3936,0 z"
         style="font-weight:bold;fill:#000080;fill-opacity:1"
         id="path5919" /><path
         d="m 2763.1919,1390.3436 q 0,5.9046 -1.8267,10.7472 -1.7841,4.8427 -4.7152,7.9861 -3.0585,3.3134 -6.9241,5.0126 -3.8656,1.6992 -8.2835,1.6992 -4.078,0 -6.9241,-0.8921 -2.8461,-0.8496 -5.8197,-2.4213 l 0,19.8803 -15.2925,0 0,-65.2058 15.2925,0 0,4.9701 q 3.5258,-2.8036 7.179,-4.5453 3.6958,-1.7416 8.4959,-1.7416 8.9207,0 13.8483,6.5418 4.9701,6.5418 4.9701,17.9688 z m -15.7599,0.2973 q 0,-6.9666 -2.3788,-10.1101 -2.3789,-3.1434 -7.5189,-3.1434 -2.1664,0 -4.4603,0.6796 -2.2939,0.6372 -4.3754,1.8691 l 0,24.0008 q 1.5293,0.5947 3.271,0.7647 1.7416,0.1699 3.4408,0.1699 6.0745,0 9.0481,-3.5258 2.9735,-3.5683 2.9735,-10.7048 z"
         style="font-weight:bold;fill:#000080;fill-opacity:1"
         id="path5921" /><path
         d="m 2825.4241,1400.2837 -8.6233,0 0,14.7403 -15.5899,0 0,-14.7403 -30.6276,0 0,-11.9792 29.6081,-36.7021 16.6094,0 0,37.1269 8.6233,0 0,11.5544 z m -24.2132,-11.5544 0,-22.8538 -18.3936,22.8538 18.3936,0 z"
         style="font-weight:bold;fill:#000080;fill-opacity:1"
         id="path5923" /><path
         d="m 2884.003,1414.8541 -15.3775,0 0,-23.661 q 0,-2.8886 -0.2973,-5.7347 -0.2974,-2.8886 -1.0195,-4.2479 -0.8496,-1.5717 -2.5063,-2.2939 -1.6142,-0.7221 -4.5453,-0.7221 -2.0815,0 -4.2479,0.6796 -2.124,0.6797 -4.6303,2.1665 l 0,33.8135 -15.2925,0 0,-47.7043 15.2925,0 0,5.2675 q 4.078,-3.186 7.8162,-4.8851 3.7807,-1.6992 8.3684,-1.6992 7.7313,0 12.0642,4.5028 4.3753,4.5028 4.3753,13.4659 l 0,31.0524 z"
         style="font-weight:bold;fill:#000080;fill-opacity:1"
         id="path5925" /><path
         d="m 2969.5989,1391.1507 q 0,11.5968 -5.9471,18.3086 -5.9471,6.7117 -15.9297,6.7117 -10.0676,0 -16.0147,-6.7117 -5.9047,-6.7118 -5.9047,-18.3086 0,-11.5969 5.9047,-18.3086 5.9471,-6.7542 16.0147,-6.7542 9.9826,0 15.9297,6.7542 5.9471,6.7117 5.9471,18.3086 z m -8.241,0 q 0,-9.2181 -3.6107,-13.6784 -3.6108,-4.5028 -10.0251,-4.5028 -6.4994,0 -10.1101,4.5028 -3.5683,4.4603 -3.5683,13.6784 0,8.9206 3.6108,13.5509 3.6107,4.5877 10.0676,4.5877 6.3719,0 9.9826,-4.5453 3.6532,-4.5877 3.6532,-13.5933 z"
         style=""
         id="path5927" /><path
         d="m 3021.6785,1414.8541 -7.9861,0 0,-27.0168 q 0,-3.2709 -0.3823,-6.117 -0.3823,-2.8886 -1.4018,-4.5029 -1.062,-1.7841 -3.0585,-2.6337 -1.9966,-0.892 -5.1825,-0.892 -3.2709,0 -6.8392,1.6142 -3.5682,1.6142 -6.8391,4.1205 l 0,35.4277 -7.9862,0 0,-47.4494 7.9862,0 0,5.2675 q 3.7381,-3.101 7.7312,-4.8427 3.993,-1.7416 8.1985,-1.7416 7.6888,0 11.7243,4.6302 4.0355,4.6303 4.0355,13.3385 l 0,30.7975 z"
         style=""
         id="path5929" /><path
         d="m 3115.7702,1391.0232 q 0,11.7668 -6.8816,18.5635 -6.8392,6.7542 -19.2432,6.7542 -12.4039,0 -19.2856,-6.7542 -6.8391,-6.7967 -6.8391,-18.5635 0,-11.8517 6.8816,-18.6059 6.9241,-6.7542 19.2431,-6.7542 12.489,0 19.2856,6.7967 6.8392,6.7967 6.8392,18.5634 z m -18.8183,11.5969 q 1.4868,-1.8266 2.2089,-4.3754 0.7646,-2.5912 0.7646,-7.1365 0,-4.2055 -0.7646,-7.0516 -0.7646,-2.8461 -2.124,-4.5453 -1.3593,-1.7416 -3.2709,-2.4638 -1.9115,-0.7221 -4.1205,-0.7221 -2.2089,0 -3.9505,0.5947 -1.6992,0.5947 -3.2709,2.3788 -1.4019,1.6567 -2.2515,4.5453 -0.8071,2.8886 -0.8071,7.264 0,3.9081 0.7222,6.7967 0.7221,2.8461 2.124,4.5877 1.3593,1.6567 3.2284,2.4214 1.9116,0.7646 4.3329,0.7646 2.0815,0 3.9506,-0.6797 1.9115,-0.7221 3.2284,-2.3788 z"
         style="font-weight:bold;fill:#000080;fill-opacity:1"
         id="path5931" /><path
         d="m 3176.4307,1390.3436 q 0,5.9046 -1.8266,10.7472 -1.7841,4.8427 -4.7152,7.9861 -3.0585,3.3134 -6.9241,5.0126 -3.8656,1.6992 -8.2835,1.6992 -4.078,0 -6.9241,-0.8921 -2.8461,-0.8496 -5.8197,-2.4213 l 0,19.8803 -15.2926,0 0,-65.2058 15.2926,0 0,4.9701 q 3.5258,-2.8036 7.179,-4.5453 3.6957,-1.7416 8.4959,-1.7416 8.9206,0 13.8482,6.5418 4.9701,6.5418 4.9701,17.9688 z m -15.7598,0.2973 q 0,-6.9666 -2.3789,-10.1101 -2.3788,-3.1434 -7.5188,-3.1434 -2.1664,0 -4.4603,0.6796 -2.2939,0.6372 -4.3754,1.8691 l 0,24.0008 q 1.5293,0.5947 3.2709,0.7647 1.7417,0.1699 3.4408,0.1699 6.0746,0 9.0481,-3.5258 2.9736,-3.5683 2.9736,-10.7048 z"
         style="font-weight:bold;fill:#000080;fill-opacity:1"
         id="path5933" /><path
         d="m 3234.4575,1393.8269 -35.003,0 q 0.3398,5.6072 4.2479,8.5808 3.9506,2.9735 11.5969,2.9735 4.8426,0 9.3879,-1.7416 4.5453,-1.7417 7.179,-3.7382 l 1.6992,0 0,12.2765 q -5.1825,2.0815 -9.7702,3.0161 -4.5878,0.9345 -10.1526,0.9345 -14.358,0 -22.0043,-6.4569 -7.6463,-6.4568 -7.6463,-18.3935 0,-11.8093 7.2215,-18.6909 7.264,-6.9241 19.8803,-6.9241 11.6394,0 17.5015,5.9046 5.8622,5.8621 5.8622,16.9068 l 0,5.3524 z m -15.2076,-8.9632 q -0.1275,-4.8001 -2.3789,-7.2215 -2.2514,-2.4213 -7.0091,-2.4213 -4.4178,0 -7.2639,2.2939 -2.8461,2.2939 -3.186,7.3489 l 19.8379,0 z"
         style="font-weight:bold;fill:#000080;fill-opacity:1"
         id="path5935" /><path
         d="m 3293.1639,1414.8541 -15.3775,0 0,-23.661 q 0,-2.8886 -0.2974,-5.7347 -0.2973,-2.8886 -1.0195,-4.2479 -0.8495,-1.5717 -2.5062,-2.2939 -1.6142,-0.7221 -4.5453,-0.7221 -2.0815,0 -4.248,0.6796 -2.1239,0.6797 -4.6302,2.1665 l 0,33.8135 -15.2926,0 0,-47.7043 15.2926,0 0,5.2675 q 4.078,-3.186 7.8162,-4.8851 3.7807,-1.6992 8.3684,-1.6992 7.7313,0 12.0642,4.5028 4.3753,4.5028 4.3753,13.4659 l 0,31.0524 z"
         style="font-weight:bold;fill:#000080;fill-opacity:1"
         id="path5937" /><path
         d="m 3331.9475,1416.1285 q -6.2445,0 -11.4269,-1.4868 -5.14,-1.4867 -8.9632,-4.5877 -3.7806,-3.101 -5.8621,-7.8162 -2.0815,-4.7152 -2.0815,-11.0447 0,-6.6692 2.2089,-11.5119 2.2514,-4.8426 6.2445,-8.0285 3.8656,-3.0161 8.9206,-4.4179 5.0551,-1.4018 10.4924,-1.4018 4.8852,0 9.0056,1.062 4.1205,1.062 7.6888,2.7611 l 0,13.0412 -2.1664,0 q -0.8921,-0.7647 -2.1665,-1.7842 -1.2319,-1.0195 -3.0585,-1.9965 -1.7417,-0.9345 -3.8231,-1.5292 -2.0815,-0.6372 -4.8427,-0.6372 -6.117,0 -9.4304,3.9081 -3.2709,3.8656 -3.2709,10.5348 0,6.8817 3.3559,10.45 3.3983,3.5682 9.6003,3.5682 2.8886,0 5.1825,-0.6372 2.3363,-0.6796 3.8656,-1.5717 1.4443,-0.8496 2.5487,-1.7841 1.1045,-0.9346 2.0391,-1.8266 l 2.1664,0 0,13.0411 q -3.6107,1.6992 -7.5613,2.6762 -3.9081,1.0195 -8.6658,1.0195 z"
         style="font-weight:bold;fill:#000080;fill-opacity:1"
         id="path5939" /><path
         d="m 3373.7047,1414.8541 -15.2925,0 0,-66.0978 15.2925,0 0,66.0978 z"
         style="font-weight:bold;fill:#000080;fill-opacity:1"
         id="path5941" /><path
         d="m 3403.4402,1414.8541 -15.2926,0 0,-47.7043 15.2926,0 0,47.7043 z m 0.4248,-54.5009 -16.1422,0 0,-11.5969 16.1422,0 0,11.5969 z"
         style="font-weight:bold;fill:#000080;fill-opacity:1"
         id="path5943" /><path
         d="m 3467.669,1390.3436 q 0,5.9046 -1.8266,10.7472 -1.7841,4.8427 -4.7152,7.9861 -3.0585,3.3134 -6.9241,5.0126 -3.8657,1.6992 -8.2835,1.6992 -4.078,0 -6.9241,-0.8921 -2.8462,-0.8496 -5.8197,-2.4213 l 0,19.8803 -15.2926,0 0,-65.2058 15.2926,0 0,4.9701 q 3.5258,-2.8036 7.179,-4.5453 3.6957,-1.7416 8.4959,-1.7416 8.9206,0 13.8482,6.5418 4.9701,6.5418 4.9701,17.9688 z m -15.7598,0.2973 q 0,-6.9666 -2.3789,-10.1101 -2.3788,-3.1434 -7.5188,-3.1434 -2.1665,0 -4.4603,0.6796 -2.2939,0.6372 -4.3754,1.8691 l 0,24.0008 q 1.5292,0.5947 3.2709,0.7647 1.7416,0.1699 3.4408,0.1699 6.0746,0 9.0481,-3.5258 2.9736,-3.5683 2.9736,-10.7048 z"
         style="font-weight:bold;fill:#000080;fill-opacity:1"
         id="path5945" /><path
         d="m 3507.5995,1402.4077 0,-9.9402 q -3.101,0.2549 -6.7117,0.7222 -3.6108,0.4248 -5.4799,1.0195 -2.2939,0.7221 -3.5258,2.1239 -1.1894,1.3594 -1.1894,3.6108 0,1.4868 0.2549,2.4213 0.2549,0.9345 1.2744,1.7841 0.977,0.8496 2.3363,1.2744 1.3594,0.3823 4.248,0.3823 2.2939,0 4.6302,-0.9345 2.3789,-0.9346 4.163,-2.4638 z m 0,7.3914 q -1.2319,0.9345 -3.0585,2.2514 -1.8266,1.3168 -3.4408,2.0815 -2.2514,1.0195 -4.6728,1.4868 -2.4213,0.5097 -5.3099,0.5097 -6.7967,0 -11.3844,-4.2054 -4.5878,-4.2055 -4.5878,-10.7473 0,-5.225 2.3364,-8.5384 2.3363,-3.3133 6.6267,-5.2249 4.248,-1.9116 10.5349,-2.7187 6.2869,-0.8071 13.0412,-1.1894 l 0,-0.2549 q 0,-3.9506 -3.2285,-5.4373 -3.2284,-1.5293 -9.5153,-1.5293 -3.7807,0 -8.0711,1.3593 -4.2904,1.3169 -6.1595,2.039 l -1.4018,0 0,-11.5119 q 2.4213,-0.6371 7.8586,-1.4867 5.4799,-0.8921 10.9597,-0.8921 13.0412,0 18.8183,4.0355 5.8197,3.9931 5.8197,12.5739 l 0,32.4542 -15.1651,0 0,-5.055 z"
         style="font-weight:bold;fill:#000080;fill-opacity:1"
         id="path5947" /><path
         d="m 3571.2336,1381.7203 -1.3593,0 q -0.977,-0.3399 -3.1435,-0.5098 -2.1664,-0.1699 -3.6107,-0.1699 -3.2709,0 -5.7772,0.4248 -2.5063,0.4248 -5.3949,1.4443 l 0,31.9444 -15.2926,0 0,-47.7043 15.2926,0 0,7.0091 q 5.055,-4.3329 8.7932,-5.7347 3.7382,-1.4443 6.8817,-1.4443 0.8071,0 1.8266,0.043 1.0195,0.043 1.7841,0.1274 l 0,14.5705 z"
         style="font-weight:bold;fill:#000080;fill-opacity:1"
         id="path5949" /><path
         d="m 3610.3145,1414.4293 q -2.4638,0.6372 -5.2249,0.9771 -2.7612,0.3823 -6.7542,0.3823 -8.9207,0 -13.2961,-3.6108 -4.3329,-3.6107 -4.3329,-12.3615 l 0,-22.3016 -6.2869,0 0,-10.365 6.2869,0 0,-13.6358 15.2926,0 0,13.6358 14.3155,0 0,10.365 -14.3155,0 0,16.9068 q 0,2.5063 0.043,4.3753 0.043,1.8691 0.6797,3.3559 0.5947,1.4868 2.0814,2.3788 1.5293,0.8496 4.4179,0.8496 1.1894,0 3.101,-0.5097 1.954,-0.5098 2.7187,-0.9346 l 1.2743,0 0,10.4924 z"
         style="font-weight:bold;fill:#000080;fill-opacity:1"
         id="path5951" /><path
         d="m 3635.8446,1414.8541 -15.8873,0 0,-16.6943 15.8873,0 0,16.6943 z"
         style="font-weight:bold;fill:#000080;fill-opacity:1"
         id="path5953" /><path
         d="m 3699.606,1391.0232 q 0,11.7668 -6.8816,18.5635 -6.8392,6.7542 -19.2431,6.7542 -12.404,0 -19.2857,-6.7542 -6.8391,-6.7967 -6.8391,-18.5635 0,-11.8517 6.8816,-18.6059 6.9241,-6.7542 19.2432,-6.7542 12.4889,0 19.2856,6.7967 6.8391,6.7967 6.8391,18.5634 z m -18.8183,11.5969 q 1.4868,-1.8266 2.2089,-4.3754 0.7646,-2.5912 0.7646,-7.1365 0,-4.2055 -0.7646,-7.0516 -0.7646,-2.8461 -2.1239,-4.5453 -1.3594,-1.7416 -3.271,-2.4638 -1.9115,-0.7221 -4.1204,-0.7221 -2.209,0 -3.9506,0.5947 -1.6992,0.5947 -3.2709,2.3788 -1.4019,1.6567 -2.2514,4.5453 -0.8071,2.8886 -0.8071,7.264 0,3.9081 0.7221,6.7967 0.7222,2.8461 2.124,4.5877 1.3593,1.6567 3.2284,2.4214 1.9116,0.7646 4.3329,0.7646 2.0815,0 3.9506,-0.6797 1.9115,-0.7221 3.2284,-2.3788 z"
         style="font-weight:bold;fill:#000080;fill-opacity:1"
         id="path5955" /><path
         d="m 3745.0589,1381.7203 -1.3593,0 q -0.977,-0.3399 -3.1435,-0.5098 -2.1664,-0.1699 -3.6107,-0.1699 -3.2709,0 -5.7772,0.4248 -2.5063,0.4248 -5.3949,1.4443 l 0,31.9444 -15.2925,0 0,-47.7043 15.2925,0 0,7.0091 q 5.0551,-4.3329 8.7932,-5.7347 3.7382,-1.4443 6.8817,-1.4443 0.8071,0 1.8266,0.043 1.0195,0.043 1.7841,0.1274 l 0,14.5705 z"
         style="font-weight:bold;fill:#000080;fill-opacity:1"
         id="path5957" /><path
         d="m 3800.0272,1409.3743 q 0,6.7117 -1.9115,11.2995 -1.9116,4.5878 -5.3524,7.179 -3.4408,2.6337 -8.326,3.7807 -4.8426,1.1894 -10.9596,1.1894 -4.9701,0 -9.8128,-0.5947 -4.8001,-0.5947 -8.3259,-1.4443 l 0,-11.9367 1.8691,0 q 2.8036,1.1044 6.8392,1.9965 4.0355,0.9346 7.2214,0.9346 4.248,0 6.8817,-0.8072 2.6762,-0.7646 4.078,-2.2089 1.3169,-1.3593 1.9116,-3.4833 0.5947,-2.1239 0.5947,-5.0975 l 0,-0.8921 q -2.7612,2.2514 -6.117,3.5683 -3.3559,1.3169 -7.4764,1.3169 -10.0251,0 -15.4625,-6.0321 -5.4373,-6.0321 -5.4373,-18.3511 0,-5.9046 1.6567,-10.195 1.6567,-4.2904 4.6727,-7.4764 2.8036,-2.9735 6.8816,-4.6302 4.1205,-1.6567 8.411,-1.6567 3.8656,0 7.009,0.9345 3.186,0.8921 5.7772,2.5063 l 0.5523,-2.124 14.8252,0 0,42.2245 z m -15.2925,-9.5579 0,-21.6219 q -1.3169,-0.5523 -3.2284,-0.8496 -1.9116,-0.3399 -3.4409,-0.3399 -6.032,0 -9.0481,3.4834 -3.016,3.4408 -3.016,9.6428 0,6.8816 2.5488,9.6003 2.5912,2.7187 7.6462,2.7187 2.2939,0 4.5029,-0.7222 2.2089,-0.7221 4.0355,-1.9116 z"
         style="font-weight:bold;fill:#000080;fill-opacity:1"
         id="path5959" /></g></g></svg>